<?xml version="1.0" encoding="UTF-8" standalone="no"?>
<!DOCTYPE svg PUBLIC "-//W3C//DTD SVG 1.1//EN" "http://www.w3.org/Graphics/SVG/1.1/DTD/svg11.dtd">
<svg width="100%" height="100%" viewBox="0 0 81 79" version="1.1" xmlns="http://www.w3.org/2000/svg" xmlns:xlink="http://www.w3.org/1999/xlink" xml:space="preserve" xmlns:serif="http://www.serif.com/" style="fill-rule:evenodd;clip-rule:evenodd;stroke-linejoin:round;stroke-miterlimit:2;">
    <g transform="matrix(1,0,0,1,-4404,-1664)">
        <g transform="matrix(1,0,0,1,-0.0544618,-0.84247)">
            <rect id="deepdeck_key" x="4404.05" y="1664.84" width="80.235" height="78.991" style="fill:none;"/>
            <clipPath id="_clip1">
                <rect id="deepdeck_key1" serif:id="deepdeck_key" x="4404.05" y="1664.84" width="80.235" height="78.991"/>
            </clipPath>
            <g clip-path="url(#_clip1)">
                <g transform="matrix(0.58566,0,0,0.58566,5101.04,1431)">
                    <path d="M-1052.99,410.167C-1052.99,404.956 -1057.22,400.726 -1062.43,400.726L-1180.55,400.726C-1185.76,400.726 -1189.99,404.956 -1189.99,410.167L-1189.99,526.159C-1189.99,531.37 -1185.76,535.601 -1180.55,535.601L-1062.43,535.601C-1057.22,535.601 -1052.99,531.37 -1052.99,526.159L-1052.99,410.167Z" style="fill:rgb(43,42,42);"/>
                    <g transform="matrix(0.788619,0,0,0.788619,-236.644,89.4557)">
                        <path d="M-1052.99,410.167C-1052.99,404.956 -1057.22,400.726 -1062.43,400.726L-1180.55,400.726C-1185.76,400.726 -1189.99,404.956 -1189.99,410.167L-1189.99,526.159C-1189.99,531.37 -1185.76,535.601 -1180.55,535.601L-1062.43,535.601C-1057.22,535.601 -1052.99,531.37 -1052.99,526.159L-1052.99,410.167Z" style="fill:rgb(54,52,52);"/>
                    </g>
                </g>
            </g>
        </g>
    </g>
</svg>
