<?xml version="1.0" encoding="UTF-8" standalone="no"?>
<!DOCTYPE svg PUBLIC "-//W3C//DTD SVG 1.1//EN" "http://www.w3.org/Graphics/SVG/1.1/DTD/svg11.dtd">
<svg width="100%" height="100%" viewBox="0 0 418 522" version="1.1" xmlns="http://www.w3.org/2000/svg" xmlns:xlink="http://www.w3.org/1999/xlink" xml:space="preserve" xmlns:serif="http://www.serif.com/" style="fill-rule:evenodd;clip-rule:evenodd;stroke-linejoin:round;stroke-miterlimit:2;">
    <g transform="matrix(1,0,0,1,-4678,-1492)">
        <g transform="matrix(1,0,0,1,-0.745807,-0.890496)">
            <rect id="deepdeck_Body" x="4678.75" y="1492.89" width="417.053" height="521.886" style="fill:none;"/>
            <clipPath id="_clip1">
                <rect id="deepdeck_Body1" serif:id="deepdeck_Body" x="4678.75" y="1492.89" width="417.053" height="521.886"/>
            </clipPath>
            <g clip-path="url(#_clip1)">
                <g transform="matrix(1,0,0,1,106.475,0.890496)">
                    <g transform="matrix(0.58566,0,0,0.58566,5308.78,1440.15)">
                        <path d="M-956.571,90.047L-584.303,90.047C-562.161,90.047 -544.185,108.024 -544.185,130.165L-544.185,941.036C-544.185,963.178 -562.161,981.154 -584.303,981.154L-1216.17,981.154C-1238.32,981.154 -1256.29,963.178 -1256.29,941.036L-1256.29,130.165C-1256.29,108.024 -1238.32,90.047 -1216.17,90.047L-1154.57,90.047C-1152.06,90.047 -1150.02,92.086 -1150.02,94.601C-1150.02,94.601 -1150.02,153.047 -1150.02,153.047L-961.124,153.047L-961.124,94.601C-961.124,92.086 -959.086,90.047 -956.571,90.047ZM-956.571,94.601L-956.571,157.601L-1154.57,157.601L-1154.57,94.601L-1216.17,94.601C-1235.8,94.601 -1251.74,110.537 -1251.74,130.165L-1251.74,941.036C-1251.74,960.665 -1235.8,976.601 -1216.17,976.601L-584.303,976.601C-564.674,976.601 -548.738,960.665 -548.738,941.036L-548.738,130.165C-548.738,110.537 -564.674,94.601 -584.303,94.601L-956.571,94.601Z" style="fill:rgb(65,65,65);"/>
                        <path d="M-956.571,94.601L-956.571,157.601L-1154.57,157.601L-1154.57,94.601L-1216.17,94.601C-1235.8,94.601 -1251.74,110.537 -1251.74,130.165L-1251.74,941.036C-1251.74,960.665 -1235.8,976.601 -1216.17,976.601L-584.303,976.601C-564.674,976.601 -548.738,960.665 -548.738,941.036L-548.738,130.165C-548.738,110.537 -564.674,94.601 -584.303,94.601L-956.571,94.601Z" style="fill:rgb(34,34,34);"/>
                    </g>
                    <g transform="matrix(0.58566,0,0,0.58566,5308.78,1450.15)">
                        <path d="M-772.295,166.267L-772.295,281.601C-772.295,282.858 -773.314,283.877 -774.571,283.877L-995.904,283.877C-997.162,283.877 -998.181,282.858 -998.181,281.601L-998.181,166.267C-998.181,165.01 -997.162,163.991 -995.904,163.991L-774.571,163.991C-773.314,163.991 -772.295,165.01 -772.295,166.267ZM-774.571,166.267L-995.904,166.267L-995.904,281.601L-774.571,281.601L-774.571,166.267Z" style="fill:rgb(54,39,3);"/>
                        <rect x="-995.904" y="166.267" width="221.333" height="115.333" style="fill:rgb(22,22,22);"/>
                    </g>
                </g>
            </g>
        </g>
    </g>
</svg>
