<?xml version="1.0" encoding="UTF-8" standalone="no"?>
<!DOCTYPE svg PUBLIC "-//W3C//DTD SVG 1.1//EN" "http://www.w3.org/Graphics/SVG/1.1/DTD/svg11.dtd">
<svg width="100%" height="100%" viewBox="0 0 83 82" version="1.1" xmlns="http://www.w3.org/2000/svg" xmlns:xlink="http://www.w3.org/1999/xlink" xml:space="preserve" xmlns:serif="http://www.serif.com/" style="fill-rule:evenodd;clip-rule:evenodd;stroke-linejoin:round;stroke-miterlimit:2;">
    <g transform="matrix(1,0,0,1,-4541,-1663)">
        <g transform="matrix(1,0,0,1,-0.400134,-0.509137)">
            <rect id="deepdeck_key_selected" x="4541.4" y="1663.51" width="82.902" height="81.658" style="fill:none;"/>
            <clipPath id="_clip1">
                <rect id="deepdeck_key_selected1" serif:id="deepdeck_key_selected" x="4541.4" y="1663.51" width="82.902" height="81.658"/>
            </clipPath>
            <g clip-path="url(#_clip1)">
                <g transform="matrix(0.58566,0,0,0.58566,5240.06,1430.66)">
                    <path d="M-1052.99,410.167C-1052.99,404.956 -1057.22,400.726 -1062.43,400.726L-1180.55,400.726C-1185.76,400.726 -1189.99,404.956 -1189.99,410.167L-1189.99,526.159C-1189.99,531.37 -1185.76,535.601 -1180.55,535.601L-1062.43,535.601C-1057.22,535.601 -1052.99,531.37 -1052.99,526.159L-1052.99,410.167Z" style="fill:rgb(242,175,13);fill-opacity:0.08;"/>
                    <g transform="matrix(0.788619,0,0,0.788619,-236.644,89.4557)">
                        <path d="M-1052.99,410.167C-1052.99,404.956 -1057.22,400.726 -1062.43,400.726L-1180.55,400.726C-1185.76,400.726 -1189.99,404.956 -1189.99,410.167L-1189.99,526.159C-1189.99,531.37 -1185.76,535.601 -1180.55,535.601L-1062.43,535.601C-1057.22,535.601 -1052.99,531.37 -1052.99,526.159L-1052.99,410.167Z" style="fill:rgb(242,175,13);fill-opacity:0.08;"/>
                    </g>
                    <path d="M-1050.71,410.167L-1050.71,526.159C-1050.71,532.627 -1055.96,537.877 -1062.43,537.877L-1180.55,537.877C-1187.01,537.877 -1192.26,532.627 -1192.26,526.159L-1192.26,410.167C-1192.26,403.7 -1187.01,398.449 -1180.55,398.449L-1062.43,398.449C-1055.96,398.449 -1050.71,403.7 -1050.71,410.167ZM-1052.99,410.167C-1052.99,404.956 -1057.22,400.726 -1062.43,400.726L-1180.55,400.726C-1185.76,400.726 -1189.99,404.956 -1189.99,410.167L-1189.99,526.159C-1189.99,531.37 -1185.76,535.601 -1180.55,535.601L-1062.43,535.601C-1057.22,535.601 -1052.99,531.37 -1052.99,526.159L-1052.99,410.167Z" style="fill:rgb(242,175,13);"/>
                    <path d="M-1052.99,410.167C-1052.99,404.956 -1057.22,400.726 -1062.43,400.726L-1180.55,400.726C-1185.76,400.726 -1189.99,404.956 -1189.99,410.167L-1189.99,526.159C-1189.99,531.37 -1185.76,535.601 -1180.55,535.601L-1062.43,535.601C-1057.22,535.601 -1052.99,531.37 -1052.99,526.159L-1052.99,410.167Z" style="fill:rgb(242,175,13);fill-opacity:0.08;"/>
                </g>
            </g>
        </g>
    </g>
</svg>
