<?xml version="1.0" encoding="UTF-8" standalone="no"?>
<svg
   width="100%"
   height="100%"
   viewBox="0 0 418 522"
   version="1.1"
   xml:space="preserve"
   style="fill-rule:evenodd;clip-rule:evenodd;stroke-linejoin:round;stroke-miterlimit:2;"
   id="svg270"
   sodipodi:docname="full_layout.svg"
   inkscape:version="1.1.2 (0a00cf5339, 2022-02-04)"
   xmlns:inkscape="http://www.inkscape.org/namespaces/inkscape"
   xmlns:sodipodi="http://sodipodi.sourceforge.net/DTD/sodipodi-0.dtd"
   xmlns="http://www.w3.org/2000/svg"
   xmlns:svg="http://www.w3.org/2000/svg"
   xmlns:serif="http://www.serif.com/"><defs
   id="defs274" /><sodipodi:namedview
   id="namedview272"
   pagecolor="#ffffff"
   bordercolor="#666666"
   borderopacity="1.0"
   inkscape:pageshadow="2"
   inkscape:pageopacity="0.0"
   inkscape:pagecheckerboard="0"
   showgrid="false"
   showguides="true"
   inkscape:guide-bbox="true"
   inkscape:zoom="1.6168582"
   inkscape:cx="173.17536"
   inkscape:cy="255.12441"
   inkscape:window-width="1920"
   inkscape:window-height="1016"
   inkscape:window-x="0"
   inkscape:window-y="27"
   inkscape:window-maximized="1"
   inkscape:current-layer="g264"><sodipodi:guide
     position="-13.120014,479.57862"
     orientation="0,-1"
     id="guide3826" /></sodipodi:namedview>
    <g
   transform="matrix(1,0,0,1,-3581,-1492)"
   id="g268">
        <g
   transform="matrix(1,0,0,1,-0.600015,-0.890496)"
   id="g266">
            <rect
   id="full_layout"
   x="3581.6"
   y="1492.89"
   width="417.053"
   height="521.886"
   style="fill:none;" />
            <clipPath
   id="_clip1">
                <rect
   id="full_layout1"
   serif:id="full_layout"
   x="3581.6"
   y="1492.89"
   width="417.053"
   height="521.886" />
            </clipPath>
            <g
   clip-path="url(#_clip1)"
   id="g264">
                <g
   transform="matrix(1,0,0,1,0.600015,0.890496)"
   id="g130">
                    <g
   transform="matrix(0.58566,0,0,0.58566,4317.36,1440.15)"
   id="g9">
                        <path
   d="M-956.571,90.047L-584.303,90.047C-562.161,90.047 -544.185,108.024 -544.185,130.165L-544.185,941.036C-544.185,963.178 -562.161,981.154 -584.303,981.154L-1216.17,981.154C-1238.32,981.154 -1256.29,963.178 -1256.29,941.036L-1256.29,130.165C-1256.29,108.024 -1238.32,90.047 -1216.17,90.047L-1154.57,90.047C-1152.06,90.047 -1150.02,92.086 -1150.02,94.601C-1150.02,94.601 -1150.02,153.047 -1150.02,153.047L-961.124,153.047L-961.124,94.601C-961.124,92.086 -959.086,90.047 -956.571,90.047ZM-956.571,94.601L-956.571,157.601L-1154.57,157.601L-1154.57,94.601L-1216.17,94.601C-1235.8,94.601 -1251.74,110.537 -1251.74,130.165L-1251.74,941.036C-1251.74,960.665 -1235.8,976.601 -1216.17,976.601L-584.303,976.601C-564.674,976.601 -548.738,960.665 -548.738,941.036L-548.738,130.165C-548.738,110.537 -564.674,94.601 -584.303,94.601L-956.571,94.601Z"
   style="fill:rgb(65,65,65);"
   id="path5" />
                        <path
   d="M-956.571,94.601L-956.571,157.601L-1154.57,157.601L-1154.57,94.601L-1216.17,94.601C-1235.8,94.601 -1251.74,110.537 -1251.74,130.165L-1251.74,941.036C-1251.74,960.665 -1235.8,976.601 -1216.17,976.601L-584.303,976.601C-564.674,976.601 -548.738,960.665 -548.738,941.036L-548.738,130.165C-548.738,110.537 -564.674,94.601 -584.303,94.601L-956.571,94.601Z"
   style="fill:rgb(34,34,34);"
   id="path7" />
                    </g>
                    <g
   transform="matrix(0.58566,0,0,0.58566,4317.36,1450.15)"
   id="g15">
                        <path
   d="m -772.295,167.07218 v 156.13555 c 0,1.70168 -1.019,3.08118 -2.276,3.08118 h -221.333 c -1.258,0 -2.277,-1.3795 -2.277,-3.08118 V 167.07218 c 0,-1.70169 1.019,-3.08118 2.277,-3.08118 h 221.333 c 1.257,0 2.276,1.37949 2.276,3.08118 z m -2.276,0 h -221.333 v 156.13555 h 221.333 z"
   style="fill:#362703;stroke-width:1.16352"
   id="path11" />
                        <rect
   x="-995.90399"
   y="167.07217"
   width="221.33299"
   height="156.1342"
   style="fill:#161616;stroke-width:1.16352"
   id="rect13" /><rect
   x="-1201.6897"
   y="143.8913"
   width="30.485878"
   height="31.39901"
   style="clip-rule:evenodd;fill:#999999;fill-rule:evenodd;stroke-width:0.193646;stroke-linejoin:round;stroke-miterlimit:2"
   id="rect13-62" /><path
   d="m -680.57287,185.09437 v 135.85507 c 0,1.48066 -0.40624,2.68096 -0.90737,2.68096 h -88.23826 c -0.50152,0 -0.90776,-1.2003 -0.90776,-2.68096 V 185.09437 c 0,-1.48065 0.40624,-2.68096 0.90776,-2.68096 h 88.23826 c 0.50113,0 0.90737,1.20031 0.90737,2.68096 z m -0.90737,0 h -88.23826 v 135.85507 h 88.23826 z"
   style="clip-rule:evenodd;fill:#2b0000;fill-rule:evenodd;stroke-width:0.685276;stroke-linejoin:round;stroke-miterlimit:2"
   id="path11-7" /><rect
   x="-769.71844"
   y="185.09436"
   width="88.238258"
   height="135.85391"
   style="clip-rule:evenodd;fill:#550000;fill-rule:evenodd;stroke-width:0.685276;stroke-linejoin:round;stroke-miterlimit:2"
   id="rect13-5" /><path
   d="m -981.11979,82.947943 v 52.172307 c 0,0.56861 -0.66555,1.02957 -1.48655,1.02957 h -144.56156 c -0.8216,0 -1.4872,-0.46096 -1.4872,-1.02957 V 82.947943 c 0,-0.568615 0.6656,-1.029567 1.4872,-1.029567 h 144.56156 c 0.821,0 1.48655,0.460952 1.48655,1.029567 z m -1.48655,0 h -144.56156 v 52.172307 h 144.56156 z"
   style="clip-rule:evenodd;fill:#362703;fill-rule:evenodd;stroke-width:0.543558;stroke-linejoin:round;stroke-miterlimit:2"
   id="path11-3" /><rect
   x="-1127.1678"
   y="82.947937"
   width="144.56161"
   height="52.17186"
   style="clip-rule:evenodd;fill:#161616;fill-rule:evenodd;stroke-width:0.543558;stroke-linejoin:round;stroke-miterlimit:2"
   id="rect13-6" />
                    <rect
   x="-734.04913"
   y="211.78171"
   width="14.096935"
   height="24.27898"
   style="clip-rule:evenodd;fill:#161616;fill-rule:evenodd;stroke-width:0.115792;stroke-linejoin:round;stroke-miterlimit:2"
   id="rect13-3" /><rect
   x="-745.7912"
   y="267.23373"
   width="35.572929"
   height="19.669874"
   style="clip-rule:evenodd;fill:#aa8800;fill-rule:evenodd;stroke-width:0.165562;stroke-linejoin:round;stroke-miterlimit:2"
   id="rect13-3-5" /></g>
                    <g
   transform="matrix(0.58566,0,0,0.58566,4328.63,1434.49)"
   id="g19">
                        <circle
   cx="-1205.6445"
   cy="298.93399"
   r="65.333"
   style="fill:#2b2a2a"
   id="circle17" />
                    </g>
                    <g
   transform="matrix(0.44821,0,0,0.44821,4165.26,1475.58)"
   id="g32">
                        <circle
   cx="-1210.8807"
   cy="298.93399"
   r="65.333"
   style="fill:#363434"
   id="circle21" />
                        <clipPath
   id="_clip2">
                            <circle
   cx="-1188.57"
   cy="298.934"
   r="65.333"
   id="circle23" />
                        </clipPath>
                        <g
   clip-path="url(#_clip2)"
   id="g30">
                            <g
   transform="matrix(2.2311,0,0,2.2311,-1944.6,-3293.42)"
   id="g28">
                                <rect
   x="327.08099"
   y="1580.39"
   width="2.8889999"
   height="17.667"
   style="fill:#2b2a2a"
   id="rect26" />
                            </g>
                        </g>
                    </g>
                    <g
   transform="matrix(0.58566,0,0,0.58566,4643.82,1434.49)"
   id="g36">
                        <circle
   cx="-1171.4954"
   cy="298.93399"
   r="65.333"
   style="fill:#2b2a2a"
   id="circle34" />
                    </g>
                    <g
   transform="matrix(0.44821,0,0,0.44821,4480.45,1475.58)"
   id="g49">
                        <circle
   cx="-1166.2592"
   cy="298.93399"
   r="65.333"
   style="fill:#363434"
   id="circle38" />
                        <clipPath
   id="_clip3">
                            <circle
   cx="-1188.57"
   cy="298.934"
   r="65.333"
   id="circle40" />
                        </clipPath>
                        <g
   clip-path="url(#_clip3)"
   id="g47">
                            <g
   transform="matrix(2.2311,0,0,2.2311,-1943.86,-3293.42)"
   id="g45">
                                <rect
   x="347.08099"
   y="1580.39"
   width="2.8889999"
   height="17.667"
   style="fill:#2b2a2a"
   id="rect43" />
                            </g>
                        </g>
                    </g>
                    <g
   transform="matrix(1,0,0,1,3293.67,1286.33)"
   id="g102">
                        <g
   transform="matrix(1.00816,0,0,1,-3.62208,40.8571)"
   id="g72">
                            <clipPath
   id="_clip4">
                                <path
   d="M445.493,264.151L450.445,264.151C450.788,264.151 451.064,264.43 451.064,264.775C451.064,265.12 450.788,265.399 450.445,265.399L447.144,265.399C446.574,265.399 446.112,265.865 446.112,266.439L446.112,269.768C446.112,270.113 445.835,270.392 445.493,270.392C445.15,270.392 444.874,270.113 444.874,269.768L444.874,264.775C444.874,264.43 445.15,264.151 445.493,264.151ZM446.112,279.753L446.112,283.082C446.112,283.656 446.574,284.122 447.144,284.122L450.445,284.122C450.788,284.122 451.064,284.401 451.064,284.746C451.064,285.091 450.788,285.37 450.445,285.37L445.493,285.37C445.15,285.37 444.874,285.091 444.874,284.746L444.874,279.753C444.874,279.408 445.15,279.129 445.493,279.129C445.835,279.129 446.112,279.408 446.112,279.753ZM460.35,264.151L465.302,264.151C465.645,264.151 465.922,264.43 465.922,264.775L465.922,269.768C465.922,270.113 465.645,270.392 465.302,270.392C464.96,270.392 464.683,270.113 464.683,269.768L464.683,266.439C464.683,265.865 464.221,265.399 463.652,265.399L460.35,265.399C460.007,265.399 459.731,265.12 459.731,264.775C459.731,264.43 460.007,264.151 460.35,264.151ZM465.922,279.753L465.922,284.746C465.922,285.091 465.645,285.37 465.302,285.37L460.35,285.37C460.007,285.37 459.731,285.091 459.731,284.746C459.731,284.401 460.007,284.122 460.35,284.122L463.652,284.122C464.221,284.122 464.683,283.656 464.683,283.082L464.683,279.753C464.683,279.408 464.96,279.129 465.302,279.129C465.645,279.129 465.922,279.408 465.922,279.753ZM478.635,264.151L483.588,264.151C483.93,264.151 484.207,264.43 484.207,264.775C484.207,265.12 483.93,265.399 483.588,265.399L480.286,265.399C479.716,265.399 479.254,265.865 479.254,266.439L479.254,269.768C479.254,270.113 478.978,270.392 478.635,270.392C478.293,270.392 478.016,270.113 478.016,269.768L478.016,264.775C478.016,264.43 478.293,264.151 478.635,264.151ZM479.254,279.753L479.254,283.082C479.254,283.656 479.716,284.122 480.286,284.122L483.588,284.122C483.93,284.122 484.207,284.401 484.207,284.746C484.207,285.091 483.93,285.37 483.588,285.37L478.635,285.37C478.293,285.37 478.016,285.091 478.016,284.746L478.016,279.753C478.016,279.408 478.293,279.129 478.635,279.129C478.978,279.129 479.254,279.408 479.254,279.753ZM493.492,264.151L498.445,264.151C498.787,264.151 499.064,264.43 499.064,264.775L499.064,269.768C499.064,270.113 498.787,270.392 498.445,270.392C498.102,270.392 497.825,270.113 497.825,269.768L497.825,266.439C497.825,265.865 497.364,265.399 496.794,265.399L493.492,265.399C493.15,265.399 492.873,265.12 492.873,264.775C492.873,264.43 493.15,264.151 493.492,264.151ZM499.064,279.753L499.064,284.746C499.064,285.091 498.787,285.37 498.445,285.37L493.492,285.37C493.15,285.37 492.873,285.091 492.873,284.746C492.873,284.401 493.15,284.122 493.492,284.122L496.794,284.122C497.364,284.122 497.825,283.656 497.825,283.082L497.825,279.753C497.825,279.408 498.102,279.129 498.445,279.129C498.787,279.129 499.064,279.408 499.064,279.753ZM511.778,264.151L516.73,264.151C517.072,264.151 517.349,264.43 517.349,264.775C517.349,265.12 517.072,265.399 516.73,265.399L513.428,265.399C512.859,265.399 512.397,265.865 512.397,266.439L512.397,269.768C512.397,270.113 512.12,270.392 511.778,270.392C511.435,270.392 511.158,270.113 511.158,269.768L511.158,264.775C511.158,264.43 511.435,264.151 511.778,264.151ZM512.397,279.753L512.397,283.082C512.397,283.656 512.859,284.122 513.428,284.122L516.73,284.122C517.072,284.122 517.349,284.401 517.349,284.746C517.349,285.091 517.072,285.37 516.73,285.37L511.778,285.37C511.435,285.37 511.158,285.091 511.158,284.746L511.158,279.753C511.158,279.408 511.435,279.129 511.778,279.129C512.12,279.129 512.397,279.408 512.397,279.753ZM526.635,264.151L531.587,264.151C531.93,264.151 532.206,264.43 532.206,264.775L532.206,269.768C532.206,270.113 531.93,270.392 531.587,270.392C531.245,270.392 530.968,270.113 530.968,269.768L530.968,266.439C530.968,265.865 530.506,265.399 529.936,265.399L526.635,265.399C526.292,265.399 526.015,265.12 526.015,264.775C526.015,264.43 526.292,264.151 526.635,264.151ZM532.206,279.753L532.206,284.746C532.206,285.091 531.93,285.37 531.587,285.37L526.635,285.37C526.292,285.37 526.015,285.091 526.015,284.746C526.015,284.401 526.292,284.122 526.635,284.122L529.936,284.122C530.506,284.122 530.968,283.656 530.968,283.082L530.968,279.753C530.968,279.408 531.245,279.129 531.587,279.129C531.93,279.129 532.206,279.408 532.206,279.753ZM544.92,264.151L549.872,264.151C550.215,264.151 550.491,264.43 550.491,264.775C550.491,265.12 550.215,265.399 549.872,265.399L546.571,265.399C546.001,265.399 545.539,265.865 545.539,266.439L545.539,269.768C545.539,270.113 545.262,270.392 544.92,270.392C544.577,270.392 544.301,270.113 544.301,269.768L544.301,264.775C544.301,264.43 544.577,264.151 544.92,264.151ZM545.539,279.753L545.539,283.082C545.539,283.656 546.001,284.122 546.571,284.122L549.872,284.122C550.215,284.122 550.491,284.401 550.491,284.746C550.491,285.091 550.215,285.37 549.872,285.37L544.92,285.37C544.577,285.37 544.301,285.091 544.301,284.746L544.301,279.753C544.301,279.408 544.577,279.129 544.92,279.129C545.262,279.129 545.539,279.408 545.539,279.753ZM559.777,264.151L564.729,264.151C565.072,264.151 565.349,264.43 565.349,264.775L565.349,269.768C565.349,270.113 565.072,270.392 564.729,270.392C564.387,270.392 564.11,270.113 564.11,269.768L564.11,266.439C564.11,265.865 563.648,265.399 563.079,265.399L559.777,265.399C559.434,265.399 559.158,265.12 559.158,264.775C559.158,264.43 559.434,264.151 559.777,264.151ZM565.349,279.753L565.349,284.746C565.349,285.091 565.072,285.37 564.729,285.37L559.777,285.37C559.434,285.37 559.158,285.091 559.158,284.746C559.158,284.401 559.434,284.122 559.777,284.122L563.079,284.122C563.648,284.122 564.11,283.656 564.11,283.082L564.11,279.753C564.11,279.408 564.387,279.129 564.729,279.129C565.072,279.129 565.349,279.408 565.349,279.753Z"
   clip-rule="nonzero"
   id="path51" />
                            </clipPath>
                            <g
   clip-path="url(#_clip4)"
   id="g70">
                                <g
   transform="matrix(0.991905,-0,-0,1,3.59276,-40.8571)"
   id="g56">
                                    <path
   d="M3766.07,1591.34L3771.1,1591.34C3771.45,1591.34 3771.74,1591.62 3771.74,1591.97C3771.74,1592.31 3771.45,1592.59 3771.1,1592.59L3767.75,1592.59C3767.17,1592.59 3766.71,1593.06 3766.71,1593.63L3766.71,1596.96C3766.71,1597.31 3766.42,1597.58 3766.07,1597.58C3765.72,1597.58 3765.43,1597.31 3765.43,1596.96L3765.43,1591.97C3765.43,1591.62 3765.72,1591.34 3766.07,1591.34ZM3766.71,1606.94L3766.71,1610.27C3766.71,1610.85 3767.17,1611.31 3767.75,1611.31L3771.1,1611.31C3771.45,1611.31 3771.74,1611.59 3771.74,1611.94C3771.74,1612.28 3771.45,1612.56 3771.1,1612.56L3766.07,1612.56C3765.72,1612.56 3765.43,1612.28 3765.43,1611.94L3765.43,1606.94C3765.43,1606.6 3765.72,1606.32 3766.07,1606.32C3766.42,1606.32 3766.71,1606.6 3766.71,1606.94ZM3781.17,1591.34L3786.2,1591.34C3786.55,1591.34 3786.84,1591.62 3786.84,1591.97L3786.84,1596.96C3786.84,1597.31 3786.55,1597.58 3786.2,1597.58C3785.85,1597.58 3785.57,1597.31 3785.57,1596.96L3785.57,1593.63C3785.57,1593.06 3785.1,1592.59 3784.53,1592.59L3781.17,1592.59C3780.82,1592.59 3780.53,1592.31 3780.53,1591.97C3780.53,1591.62 3780.82,1591.34 3781.17,1591.34ZM3786.84,1606.94L3786.84,1611.94C3786.84,1612.28 3786.55,1612.56 3786.2,1612.56L3781.17,1612.56C3780.82,1612.56 3780.53,1612.28 3780.53,1611.94C3780.53,1611.59 3780.82,1611.31 3781.17,1611.31L3784.53,1611.31C3785.1,1611.31 3785.57,1610.85 3785.57,1610.27L3785.57,1606.94C3785.57,1606.6 3785.85,1606.32 3786.2,1606.32C3786.55,1606.32 3786.84,1606.6 3786.84,1606.94Z"
   style="fill:rgb(242,175,13);"
   id="path54" />
                                </g>
                                <g
   transform="matrix(0.991905,-0,-0,1,3.59276,-40.8571)"
   id="g60">
                                    <path
   d="M3799.76,1591.34L3804.79,1591.34C3805.14,1591.34 3805.43,1591.62 3805.43,1591.97C3805.43,1592.31 3805.14,1592.59 3804.79,1592.59L3801.43,1592.59C3800.86,1592.59 3800.39,1593.06 3800.39,1593.63L3800.39,1596.96C3800.39,1597.31 3800.11,1597.58 3799.76,1597.58C3799.41,1597.58 3799.12,1597.31 3799.12,1596.96L3799.12,1591.97C3799.12,1591.62 3799.41,1591.34 3799.76,1591.34ZM3800.39,1606.94L3800.39,1610.27C3800.39,1610.85 3800.86,1611.31 3801.43,1611.31L3804.79,1611.31C3805.14,1611.31 3805.43,1611.59 3805.43,1611.94C3805.43,1612.28 3805.14,1612.56 3804.79,1612.56L3799.76,1612.56C3799.41,1612.56 3799.12,1612.28 3799.12,1611.94L3799.12,1606.94C3799.12,1606.6 3799.41,1606.32 3799.76,1606.32C3800.11,1606.32 3800.39,1606.6 3800.39,1606.94ZM3814.86,1591.34L3819.89,1591.34C3820.24,1591.34 3820.53,1591.62 3820.53,1591.97L3820.53,1596.96C3820.53,1597.31 3820.24,1597.58 3819.89,1597.58C3819.54,1597.58 3819.25,1597.31 3819.25,1596.96L3819.25,1593.63C3819.25,1593.06 3818.79,1592.59 3818.21,1592.59L3814.86,1592.59C3814.51,1592.59 3814.22,1592.31 3814.22,1591.97C3814.22,1591.62 3814.51,1591.34 3814.86,1591.34ZM3820.53,1606.94L3820.53,1611.94C3820.53,1612.28 3820.24,1612.56 3819.89,1612.56L3814.86,1612.56C3814.51,1612.56 3814.22,1612.28 3814.22,1611.94C3814.22,1611.59 3814.51,1611.31 3814.86,1611.31L3818.21,1611.31C3818.79,1611.31 3819.25,1610.85 3819.25,1610.27L3819.25,1606.94C3819.25,1606.6 3819.54,1606.32 3819.89,1606.32C3820.24,1606.32 3820.53,1606.6 3820.53,1606.94Z"
   style="fill:rgb(242,175,13);"
   id="path58" />
                                </g>
                                <g
   transform="matrix(0.991905,-0,-0,1,3.59276,-40.8571)"
   id="g64">
                                    <path
   d="M3833.44,1591.34L3838.47,1591.34C3838.83,1591.34 3839.11,1591.62 3839.11,1591.97C3839.11,1592.31 3838.83,1592.59 3838.47,1592.59L3835.12,1592.59C3834.54,1592.59 3834.08,1593.06 3834.08,1593.63L3834.08,1596.96C3834.08,1597.31 3833.79,1597.58 3833.44,1597.58C3833.09,1597.58 3832.8,1597.31 3832.8,1596.96L3832.8,1591.97C3832.8,1591.62 3833.09,1591.34 3833.44,1591.34ZM3834.08,1606.94L3834.08,1610.27C3834.08,1610.85 3834.54,1611.31 3835.12,1611.31L3838.47,1611.31C3838.83,1611.31 3839.11,1611.59 3839.11,1611.94C3839.11,1612.28 3838.83,1612.56 3838.47,1612.56L3833.44,1612.56C3833.09,1612.56 3832.8,1612.28 3832.8,1611.94L3832.8,1606.94C3832.8,1606.6 3833.09,1606.32 3833.44,1606.32C3833.79,1606.32 3834.08,1606.6 3834.08,1606.94ZM3848.54,1591.34L3853.58,1591.34C3853.93,1591.34 3854.21,1591.62 3854.21,1591.97L3854.21,1596.96C3854.21,1597.31 3853.93,1597.58 3853.58,1597.58C3853.22,1597.58 3852.94,1597.31 3852.94,1596.96L3852.94,1593.63C3852.94,1593.06 3852.47,1592.59 3851.9,1592.59L3848.54,1592.59C3848.19,1592.59 3847.9,1592.31 3847.9,1591.97C3847.9,1591.62 3848.19,1591.34 3848.54,1591.34ZM3854.21,1606.94L3854.21,1611.94C3854.21,1612.28 3853.93,1612.56 3853.58,1612.56L3848.54,1612.56C3848.19,1612.56 3847.9,1612.28 3847.9,1611.94C3847.9,1611.59 3848.19,1611.31 3848.54,1611.31L3851.9,1611.31C3852.47,1611.31 3852.94,1610.85 3852.94,1610.27L3852.94,1606.94C3852.94,1606.6 3853.22,1606.32 3853.58,1606.32C3853.93,1606.32 3854.21,1606.6 3854.21,1606.94Z"
   style="fill:rgb(242,175,13);"
   id="path62" />
                                </g>
                                <g
   transform="matrix(0.991905,-0,-0,1,3.59276,-40.8571)"
   id="g68">
                                    <path
   d="M3867.13,1591.34L3872.16,1591.34C3872.51,1591.34 3872.8,1591.62 3872.8,1591.97C3872.8,1592.31 3872.51,1592.59 3872.16,1592.59L3868.8,1592.59C3868.23,1592.59 3867.76,1593.06 3867.76,1593.63L3867.76,1596.96C3867.76,1597.31 3867.48,1597.58 3867.13,1597.58C3866.78,1597.58 3866.49,1597.31 3866.49,1596.96L3866.49,1591.97C3866.49,1591.62 3866.78,1591.34 3867.13,1591.34ZM3867.76,1606.94L3867.76,1610.27C3867.76,1610.85 3868.23,1611.31 3868.8,1611.31L3872.16,1611.31C3872.51,1611.31 3872.8,1611.59 3872.8,1611.94C3872.8,1612.28 3872.51,1612.56 3872.16,1612.56L3867.13,1612.56C3866.78,1612.56 3866.49,1612.28 3866.49,1611.94L3866.49,1606.94C3866.49,1606.6 3866.78,1606.32 3867.13,1606.32C3867.48,1606.32 3867.76,1606.6 3867.76,1606.94ZM3882.23,1591.34L3887.26,1591.34C3887.61,1591.34 3887.9,1591.62 3887.9,1591.97L3887.9,1596.96C3887.9,1597.31 3887.61,1597.58 3887.26,1597.58C3886.91,1597.58 3886.62,1597.31 3886.62,1596.96L3886.62,1593.63C3886.62,1593.06 3886.16,1592.59 3885.58,1592.59L3882.23,1592.59C3881.88,1592.59 3881.59,1592.31 3881.59,1591.97C3881.59,1591.62 3881.88,1591.34 3882.23,1591.34ZM3887.9,1606.94L3887.9,1611.94C3887.9,1612.28 3887.61,1612.56 3887.26,1612.56L3882.23,1612.56C3881.88,1612.56 3881.59,1612.28 3881.59,1611.94C3881.59,1611.59 3881.88,1611.31 3882.23,1611.31L3885.58,1611.31C3886.16,1611.31 3886.62,1610.85 3886.62,1610.27L3886.62,1606.94C3886.62,1606.6 3886.91,1606.32 3887.26,1606.32C3887.61,1606.32 3887.9,1606.6 3887.9,1606.94Z"
   style="fill:rgb(242,175,13);"
   id="path66" />
                                </g>
                            </g>
                        </g>
                        <g
   transform="matrix(0.931882,0,0,0.931882,304.797,37.9508)"
   id="g78">
                            <g
   transform="matrix(16,0,0,16,166.686,304.184)"
   id="g74">
                            </g>
                            
                        </g>
                        <g
   transform="matrix(0.931882,0,0,0.931882,337.256,37.9508)"
   id="g84">
                            <g
   transform="matrix(16,0,0,16,166.686,304.184)"
   id="g80">
                            </g>
                            
                        </g>
                        <g
   transform="matrix(1.07562,0,0,1,-48.2748,0)"
   id="g88">
                            
                        </g>
                        <g
   transform="matrix(0.931882,0,0,0.931882,404.537,37.9508)"
   id="g94">
                            <g
   transform="matrix(16,0,0,16,166.686,304.184)"
   id="g90">
                            </g>
                            
                        </g>
                        <g
   transform="matrix(0.931882,0,0,0.931882,371.657,37.9508)"
   id="g100">
                            <g
   transform="matrix(16,0,0,16,166.686,304.184)"
   id="g96">
                            </g>
                            
                        </g>
                    </g>
                    <g
   transform="matrix(0.931882,0,0,0.931882,3589.13,1300.62)"
   id="g110">
                        <g
   transform="matrix(16,0,0,16,210.545,304.184)"
   id="g104">
                        </g>
                        
                    </g>
                    <g
   transform="matrix(0.931882,0,0,0.931882,3462.09,1279.66)"
   id="g116">
                        <g
   transform="matrix(12.8772,0,0,12.8772,210.327,304.184)"
   id="g112">
                        </g>
                        
                    </g>
                    <g
   transform="matrix(0.931882,0,0,0.931882,3768.13,1279.66)"
   id="g122">
                        <g
   transform="matrix(12.8772,0,0,12.8772,224.845,304.184)"
   id="g118">
                        </g>
                        
                    </g>
                    <g
   transform="matrix(0.931882,0,0,0.931882,3589.13,1277.62)"
   id="g128">
                        <g
   transform="matrix(16,0,0,16,175.787,304.184)"
   id="g124">
                        </g>
                        <text
   x="157.787px"
   y="304.184px"
   style="font-family:'FontAwesome6Free-Solid', 'Font Awesome 6 Free';font-weight:900;font-size:16px;fill:rgb(242,175,13);"
   id="text126"></text>
                    </g>
                </g><rect
   x="3950.179"
   y="1535.3119"
   width="17.854359"
   height="18.389145"
   style="clip-rule:evenodd;fill:#999999;fill-rule:evenodd;stroke-width:0.113411;stroke-linejoin:round;stroke-miterlimit:2"
   id="rect13-62-9" />
                <g
   transform="matrix(0.58566,0,0,0.58566,4313.57,1431.04)"
   id="g262">
                    <g
   id="g138">
                        
                        <g
   transform="matrix(0.788619,0,0,0.788619,-236.644,89.4557)"
   id="g136">
                            
                        </g>
                    </g>
                    <g
   transform="matrix(1,0,0,1,0,146)"
   id="g146">
                        
                        <g
   transform="matrix(0.788619,0,0,0.788619,-236.644,89.4557)"
   id="g144">
                            
                        </g>
                    </g>
                    <g
   transform="matrix(1,0,0,1,0,292)"
   id="g154">
                        
                        <g
   transform="matrix(0.788619,0,0,0.788619,-236.644,89.4557)"
   id="g152">
                            
                        </g>
                    </g>
                    <g
   transform="matrix(1,0,0,1,0,438)"
   id="g162">
                        
                        <g
   transform="matrix(0.788619,0,0,0.788619,-236.644,89.4557)"
   id="g160">
                            
                        </g>
                    </g>
                    <g
   transform="matrix(1,0,0,1,152.5,146)"
   id="g172">
                        <g
   id="g170">
                            
                            <g
   transform="matrix(0.788619,0,0,0.788619,-236.644,89.4557)"
   id="g168">
                                
                            </g>
                        </g>
                    </g>
                    <g
   transform="matrix(1,0,0,1,152.5,292)"
   id="g180">
                        
                        <g
   transform="matrix(0.788619,0,0,0.788619,-236.644,89.4557)"
   id="g178">
                            
                        </g>
                    </g>
                    <g
   transform="matrix(1,0,0,1,152.5,438)"
   id="g188">
                        
                        <g
   transform="matrix(0.788619,0,0,0.788619,-236.644,89.4557)"
   id="g186">
                            
                        </g>
                    </g>
                    <g
   transform="matrix(1,0,0,1,305,0)"
   id="g196">
                        
                        <g
   transform="matrix(0.788619,0,0,0.788619,-236.644,89.4557)"
   id="g194">
                            
                        </g>
                    </g>
                    <g
   transform="matrix(1,0,0,1,152.5,4.54747e-13)"
   id="g204">
                        
                        <g
   transform="matrix(0.788619,0,0,0.788619,-236.644,89.4557)"
   id="g202">
                            
                        </g>
                    </g>
                    <g
   transform="matrix(1,0,0,1,305,146)"
   id="g212">
                        
                        <g
   transform="matrix(0.788619,0,0,0.788619,-236.644,89.4557)"
   id="g210">
                            
                        </g>
                    </g>
                    <g
   transform="matrix(1,0,0,1,305,292)"
   id="g220">
                        
                        <g
   transform="matrix(0.788619,0,0,0.788619,-236.644,89.4557)"
   id="g218">
                            
                        </g>
                    </g>
                    <g
   transform="matrix(1,0,0,1,305,438)"
   id="g228">
                        
                        <g
   transform="matrix(0.788619,0,0,0.788619,-236.644,89.4557)"
   id="g226">
                            
                        </g>
                    </g>
                    <g
   transform="matrix(1,0,0,1,457.5,0)"
   id="g236">
                        
                        <g
   transform="matrix(0.788619,0,0,0.788619,-236.644,89.4557)"
   id="g234">
                            
                        </g>
                    </g>
                    <g
   transform="matrix(1,0,0,1,457.5,146)"
   id="g244">
                        
                        <g
   transform="matrix(0.788619,0,0,0.788619,-236.644,89.4557)"
   id="g242">
                            
                        </g>
                    </g>
                    <g
   transform="matrix(1,0,0,1,457.5,292)"
   id="g252">
                        
                        <g
   transform="matrix(0.788619,0,0,0.788619,-236.644,89.4557)"
   id="g250">
                            
                        </g>
                    </g>
                    <g
   transform="matrix(1,0,0,1,457.5,438)"
   id="g260">
                        
                        <g
   transform="matrix(0.788619,0,0,0.788619,-236.644,89.4557)"
   id="g258">
                            
                        </g>
                    </g>
                </g>
            </g>
        </g>
    </g>
</svg>
